<svg xmlns="http://www.w3.org/2000/svg" width="2204.551" height="1344.964" viewBox="0 0 2204.551 1344.964">
  <g id="Path_1" data-name="Path 1" transform="translate(1445.764 1331.944) rotate(-89)" fill="#e9e4e4">
    <path d="M 368.5 745.5376586914063 C 343.5282287597656 745.5376586914063 318.5723266601563 743.2609252929688 294.325439453125 738.7704467773438 C 270.6954345703125 734.3943481445313 247.4524383544922 727.8646850585938 225.2418823242188 719.3626708984375 C 203.4352264404297 711.0152587890625 182.4028930664063 700.68359375 162.72900390625 688.654541015625 C 143.2427825927734 676.7403564453125 124.9189987182617 663.0578002929688 108.2666702270508 647.9871215820313 C 91.61521911621094 632.917236328125 76.49788665771484 616.335205078125 63.33466720581055 598.70166015625 C 50.04600143432617 580.900146484375 38.63266754150391 561.8698120117188 29.41155624389648 542.1393432617188 C 20.02044486999512 522.0451049804688 12.80788898468018 501.0171203613281 7.9743332862854 479.6394653320313 C 5.51722240447998 468.7722473144531 3.641555547714233 457.6495666503906 2.399444341659546 446.5804443359375 C 1.139000058174133 435.3487854003906 0.5 423.8951110839844 0.5 412.5377807617188 C 0.5 394.9557800292969 2.243444442749023 375.25 5.682111263275146 353.9678955078125 C 9.074666976928711 332.9699096679688 14.05666637420654 310.8028869628906 20.48955535888672 288.0826721191406 C 26.97599983215332 265.1727905273438 34.82088851928711 242.1168975830078 43.80622100830078 219.5554504394531 C 53.05322265625 196.3368988037109 63.38399887084961 173.9622344970703 74.51166534423828 153.0529022216797 C 86.14544677734375 131.1922302246094 98.58377838134766 111.0683441162109 111.4810028076172 93.23989868164063 C 125.1002197265625 74.41334533691406 139.2647705078125 58.10934448242188 153.5811157226563 44.78090286254883 C 161.0451049804688 37.83190155029297 168.6541137695313 31.60223388671875 176.1966705322266 26.26490211486816 C 183.9717712402344 20.76301193237305 191.8667755126953 16.07490158081055 199.6622161865234 12.33079051971436 C 207.6984405517578 8.471012115478516 215.8308868408203 5.517568111419678 223.8335571289063 3.552679061889648 C 232.0831146240234 1.52712345123291 240.4068908691406 0.5000123977661133 248.5737762451172 0.5000123977661133 C 290.4835510253906 0.5000123977661133 330.6957702636719 27.02178955078125 368.0932312011719 79.32856750488281 C 406.8333435058594 133.5131225585938 449.5069885253906 175.8774566650391 498.5527648925781 208.8423461914063 C 540.8596801757813 237.2779083251953 580.6533203125 253.9779052734375 615.762451171875 268.7120056152344 C 633.4755859375 276.1455688476563 650.2062377929688 283.1669006347656 664.898193359375 290.7915649414063 C 681.1914672851563 299.2472229003906 693.3072509765625 307.5697937011719 703.0274658203125 316.9831237792969 C 714.1881103515625 327.7914428710938 722.260009765625 340.2133483886719 727.704345703125 354.9585571289063 C 730.5960083007813 362.7901306152344 732.797119140625 371.4871215820313 734.2466430664063 380.8078918457031 C 735.7418823242188 390.4219055175781 736.5 401.0973510742188 736.5 412.5377807617188 C 736.5 423.8951110839844 735.8610229492188 435.3487854003906 734.6005859375 446.5804443359375 C 733.3584594726563 457.6495666503906 731.4827880859375 468.7722473144531 729.0256958007813 479.6394653320313 C 724.192138671875 501.0171203613281 716.9795532226563 522.0451049804688 707.5884399414063 542.1393432617188 C 698.3673095703125 561.8698120117188 686.9539794921875 580.900146484375 673.6653442382813 598.70166015625 C 660.5021362304688 616.335205078125 645.384765625 632.917236328125 628.7333374023438 647.9871215820313 C 612.0809936523438 663.0578002929688 593.7572021484375 676.7403564453125 574.27099609375 688.654541015625 C 554.5971069335938 700.68359375 533.5647583007813 711.0152587890625 511.7581176757813 719.3626708984375 C 489.5475463867188 727.8646850585938 466.3045654296875 734.3943481445313 442.674560546875 738.7704467773438 C 418.4276733398438 743.2609252929688 393.4717712402344 745.5376586914063 368.5 745.5376586914063 Z" stroke="none"/>
    <path d="M 248.5737915039063 1 C 240.4471130371094 1 232.1634521484375 2.022216796875 223.9527587890625 4.0382080078125 C 215.9835815429688 5.994873046875 207.8839111328125 8.93658447265625 199.878662109375 12.78143310546875 C 192.1084594726563 16.5135498046875 184.23779296875 21.18731689453125 176.4855346679688 26.67303466796875 C 168.9611206054688 31.9974365234375 161.3695678710938 38.2130126953125 153.9217529296875 45.14691162109375 C 139.6292114257813 58.4532470703125 125.4864501953125 74.732666015625 111.8861083984375 93.53302001953125 C 99.002197265625 111.3428955078125 86.57623291015625 131.4473571777344 74.9530029296875 153.2877807617188 C 63.833984375 174.1809997558594 53.510986328125 196.5389099121094 44.270751953125 219.7404479980469 C 35.291748046875 242.2860107421875 27.45245361328125 265.3254699707031 20.9705810546875 288.2189025878906 C 14.54302978515625 310.9206848144531 9.56524658203125 333.0686645507813 6.1756591796875 354.0476684570313 C 2.7413330078125 375.3035888671875 1 394.9824523925781 1 412.5377807617188 C 1 423.8765869140625 1.63800048828125 435.3114624023438 2.8963623046875 446.524658203125 C 4.1363525390625 457.5755615234375 6.0089111328125 468.6799011230469 8.46197509765625 479.5291137695313 C 13.28765869140625 500.8718872070313 20.488525390625 521.8657836914063 29.86456298828125 541.9275512695313 C 39.07122802734375 561.6272583007813 50.46697998046875 580.6282348632813 63.7353515625 598.402587890625 C 76.87933349609375 616.01025390625 91.97467041015625 632.568115234375 108.6022338867188 647.6163330078125 C 125.2314453125 662.666259765625 143.5300903320313 676.3298950195313 162.9898071289063 688.22802734375 C 182.6376953125 700.2410278320313 203.6424560546875 710.5591430664063 225.420654296875 718.8956909179688 C 247.6028747558594 727.3867797851563 270.8164367675781 733.908203125 294.4165649414063 738.2789306640625 C 318.6334533691406 742.763671875 343.5586547851563 745.0376586914063 368.5 745.0376586914063 C 393.4413452148438 745.0376586914063 418.3665466308594 742.763671875 442.5834350585938 738.2789306640625 C 466.1835632324219 733.908203125 489.3970947265625 727.3867797851563 511.579345703125 718.8956909179688 C 533.3575439453125 710.5591430664063 554.3623046875 700.2410278320313 574.01025390625 688.22802734375 C 593.4699096679688 676.3298950195313 611.7685546875 662.666259765625 628.3977661132813 647.6163330078125 C 645.0253295898438 632.568115234375 660.1206665039063 616.01025390625 673.2646484375 598.402587890625 C 686.5330200195313 580.6282348632813 697.9287719726563 561.6272583007813 707.1354370117188 541.9275512695313 C 716.511474609375 521.8657836914063 723.7123413085938 500.8718872070313 728.5380249023438 479.5291137695313 C 730.9910888671875 468.6799011230469 732.8636474609375 457.5755615234375 734.1036376953125 446.524658203125 C 735.3619995117188 435.3114624023438 736 423.8765869140625 736 412.5377807617188 C 736 401.1230163574219 735.243896484375 390.4733276367188 733.752685546875 380.8847961425781 C 732.3082275390625 371.5968017578125 730.1154174804688 362.9322509765625 727.2352294921875 355.1316833496094 C 721.8174438476563 340.4583435058594 713.7852172851563 328.0973510742188 702.6796875 317.3423461914063 C 692.995361328125 307.9636840820313 680.916748046875 299.6679992675781 664.6679077148438 291.2353515625 C 649.9940185546875 283.6200256347656 633.2724609375 276.6025695800781 615.5689697265625 269.1730041503906 C 580.4387817382813 254.4301147460938 540.6212158203125 237.7201232910156 498.2738952636719 209.2573547363281 C 449.1775512695313 176.2584533691406 406.4620056152344 133.8535766601563 367.6865539550781 79.61935424804688 C 330.3882141113281 27.45135498046875 290.31298828125 1 248.5737915039063 1 M 248.57373046875 6.103515625e-05 C 287.70458984375 6.103515625e-05 328.4575500488281 23.0316162109375 368.5 79.03778076171875 C 545.572998046875 326.70458984375 737 228.3507995605469 737 412.5377807617188 C 737 596.7246704101563 572.0169067382813 746.0376586914063 368.5 746.0376586914063 C 164.9830932617188 746.0376586914063 0 596.7246704101563 0 412.5377807617188 C 0 270.001953125 114.6627807617188 6.103515625e-05 248.57373046875 6.103515625e-05 Z" stroke="none" fill="#fff"/>
  </g>
  <g id="Path_2" data-name="Path 2" transform="matrix(-0.921, -0.391, 0.391, -0.921, 674.73, 981.031)" fill="#e9e4e4">
    <path d="M 366.5 754.113525390625 C 341.6643676757813 754.113525390625 316.8443603515625 751.8197631835938 292.7296447753906 747.2957153320313 C 269.2284851074219 742.8869018554688 246.1119995117188 736.308349609375 224.0224761962891 727.7427978515625 C 202.33447265625 719.3328857421875 181.4164733886719 708.9239501953125 161.8496398925781 696.804931640625 C 142.4692993164063 684.801513671875 124.2451782226563 671.0164184570313 107.6832962036133 655.8328857421875 C 91.12211608886719 640.6499633789063 76.08682250976563 623.9434814453125 62.99494171142578 606.177734375 C 49.77823638916016 588.242431640625 38.42658996582031 569.0691528320313 29.25541114807129 549.1904296875 C 19.91505813598633 528.9451293945313 12.74152946472168 507.7589111328125 7.934000015258789 486.2203369140625 C 5.49011754989624 475.2713928222656 3.624588251113892 464.0649108886719 2.389176368713379 452.9125671386719 C 1.135647058486938 441.59619140625 0.5 430.0563354492188 0.5 418.6134948730469 C 0.5 413.42138671875 0.8119999766349792 408.3362121582031 1.427176475524902 403.4993896484375 C 2.029411792755127 398.765380859375 2.939882278442383 394.1303100585938 4.133176326751709 389.7230224609375 C 5.299529552459717 385.4157409667969 6.77047061920166 381.1987915039063 8.505412101745605 377.1892700195313 C 10.19823551177979 373.2769165039063 12.19270610809326 369.4456176757813 14.4335298538208 365.8018493652344 C 18.73070526123047 358.8138427734375 24.14447021484375 352.181396484375 30.52411842346191 346.0886840820313 C 36.5068244934082 340.3749084472656 43.57776641845703 334.9102172851563 51.54035186767578 329.8463134765625 C 58.98046875 325.1146850585938 67.17906188964844 320.7022094726563 76.60470581054688 316.3567810058594 C 85.02729034423828 312.4737243652344 94.25870513916016 308.7271423339844 104.8264694213867 304.9029235839844 C 124.5005874633789 297.7833862304688 145.2242279052734 291.6763305664063 167.1645812988281 285.2109069824219 C 218.4420013427734 270.10009765625 271.4651794433594 254.4749145507813 310.1546936035156 225.1229095458984 C 315.071533203125 221.3926696777344 319.7205810546875 217.4600830078125 323.9727172851563 213.4342041015625 C 328.3932800292969 209.2489166259766 332.5260009765625 204.8293762207031 336.2560119628906 200.2983245849609 C 340.1189270019531 195.6059722900391 343.6705932617188 190.6476135253906 346.8122253417969 185.5612640380859 C 350.0552978515625 180.3105621337891 352.9610595703125 174.7623291015625 355.4488220214844 169.07080078125 C 358.0098876953125 163.2113800048828 360.2054138183594 157.0226745605469 361.974365234375 150.6765594482422 C 363.7912902832031 144.158447265625 365.2128295898438 137.2787933349609 366.1992797851563 130.2289123535156 C 367.210693359375 123.0017318725586 367.7949523925781 115.3805618286133 367.9361267089844 107.5771484375 C 368.0804748535156 99.59032440185547 367.7649536132813 91.17643737792969 366.9979858398438 82.56914520263672 C 363.9035339355469 47.83726501464844 368.2369384765625 23.77502822875977 379.8777770996094 11.05102920532227 C 383.1172790527344 7.509970188140869 386.9684753417969 4.825734615325928 391.3242492675781 3.072911262512207 C 395.5669555664063 1.365617156028748 400.3909301757813 0.4999701380729675 405.6622314453125 0.4999701380729675 C 428.2023620605469 0.4999701380729675 459.6831665039063 16.11408805847168 496.701416015625 45.65420532226563 C 514.0925903320313 59.53220367431641 532.279296875 76.14443969726563 550.75634765625 95.02973175048828 C 569.0575561523438 113.7353820800781 587.1998901367188 134.2152709960938 604.67919921875 155.9005584716797 C 622.425537109375 177.9170227050781 639.0661010742188 200.6553802490234 654.1387939453125 223.4839630126953 C 669.778564453125 247.17138671875 683.4619750976563 270.5585632324219 694.808837890625 292.995849609375 C 706.765625 316.6392517089844 716.0370483398438 339.0628967285156 722.3655395507813 359.6438598632813 C 729.0902099609375 381.5132751464844 732.5 401.3534851074219 732.5 418.6134948730469 C 732.5 430.0563354492188 731.8643798828125 441.59619140625 730.61083984375 452.9125671386719 C 729.3754272460938 464.0649108886719 727.5098876953125 475.2713928222656 725.0659790039063 486.2203369140625 C 720.2584838867188 507.7589111328125 713.0849609375 528.9451293945313 703.7445678710938 549.1904296875 C 694.5734252929688 569.0691528320313 683.2217407226563 588.242431640625 670.0050659179688 606.177734375 C 656.9131469726563 623.9434814453125 641.8778686523438 640.6499633789063 625.3167114257813 655.8328857421875 C 608.7548217773438 671.0164184570313 590.5307006835938 684.801513671875 571.1503295898438 696.804931640625 C 551.5835571289063 708.9239501953125 530.66552734375 719.3328857421875 508.9775390625 727.7427978515625 C 486.8880004882813 736.308349609375 463.7715148925781 742.8869018554688 440.2703552246094 747.2957153320313 C 416.1556396484375 751.8197631835938 391.3356323242188 754.113525390625 366.5 754.113525390625 Z" stroke="none"/>
    <path d="M 405.6622314453125 1 C 400.4551696777344 1 395.6940002441406 1.853515625 391.5108337402344 3.53680419921875 C 387.2250671386719 5.2613525390625 383.435302734375 7.90301513671875 380.24658203125 11.388427734375 C 377.5070495605469 14.383056640625 375.1438903808594 18.0733642578125 373.2229309082031 22.3570556640625 C 371.2414245605469 26.7757568359375 369.6792907714844 31.93902587890625 368.5799865722656 37.70361328125 C 367.4485778808594 43.63641357421875 366.7783508300781 50.35888671875 366.587890625 57.684326171875 C 366.3923645019531 65.20843505859375 366.6978759765625 73.56597900390625 367.4960021972656 82.5247802734375 C 368.2644653320313 91.14974975585938 368.5807189941406 99.58160400390625 368.4360046386719 107.5862121582031 C 368.2945861816406 115.4097290039063 367.7085876464844 123.0511474609375 366.6944580078125 130.2982177734375 C 365.7049560546875 137.3699645996094 364.27880859375 144.2713928222656 362.4559936523438 150.810791015625 C 360.6806945800781 157.1793823242188 358.477294921875 163.3901977539063 355.9069519042969 169.2710266113281 C 353.4098815917969 174.9841003417969 350.4930725097656 180.5532531738281 347.2376403808594 185.823974609375 C 344.0841064453125 190.9295043945313 340.5191650390625 195.9063110351563 336.6419982910156 200.6162109375 C 332.8989562988281 205.1630249023438 328.7520141601563 209.5978393554688 324.3164672851563 213.7973937988281 C 320.0511779785156 217.8356323242188 315.3881225585938 221.7800903320313 310.4569396972656 225.5212707519531 C 271.6944580078125 254.9285583496094 218.62646484375 270.5669250488281 167.305908203125 285.6904296875 C 145.373046875 292.1537475585938 124.656494140625 298.2586669921875 104.9967041015625 305.3730163574219 C 94.4422607421875 309.1924438476563 85.2236328125 312.9337463378906 76.81402587890625 316.810791015625 C 67.408935546875 321.1467895507813 59.22967529296875 325.5486755371094 51.8087158203125 330.2681884765625 C 43.8736572265625 335.314697265625 36.82861328125 340.759033203125 30.869384765625 346.4501953125 C 24.52081298828125 352.5133666992188 19.13421630859375 359.1123046875 14.85943603515625 366.0638427734375 C 12.63104248046875 369.6873779296875 10.64764404296875 373.4972534179688 8.96435546875 377.3877563476563 C 7.23895263671875 381.3753662109375 5.77587890625 385.5695190429688 4.61578369140625 389.8537292480469 C 3.428466796875 394.2388916015625 2.5225830078125 398.8511352539063 1.92327880859375 403.5624389648438 C 1.31060791015625 408.37841796875 1 413.4423217773438 1 418.6134948730469 C 1 430.0379638671875 1.63458251953125 441.5593872070313 2.8861083984375 452.8574829101563 C 4.1195068359375 463.9918518066406 5.98199462890625 475.1800842285156 8.4219970703125 486.1113891601563 C 13.22174072265625 507.6153869628906 20.3839111328125 528.7677612304688 29.70941162109375 548.9808959960938 C 38.866455078125 568.8290405273438 50.2008056640625 587.972900390625 63.39752197265625 605.8810424804688 C 76.47021484375 623.6209106445313 91.4837646484375 640.3031616210938 108.0211791992188 655.4642333984375 C 124.5599975585938 670.6267700195313 142.7591552734375 684.392822265625 162.1129150390625 696.3798828125 C 181.6536254882813 708.482666015625 202.5438842773438 718.8778686523438 224.2031860351563 727.2765502929688 C 246.2641296386719 735.8310546875 269.350830078125 742.401123046875 292.8218688964844 746.8043212890625 C 316.90625 751.3225708007813 341.6951904296875 753.613525390625 366.5 753.613525390625 C 391.3048095703125 753.613525390625 416.09375 751.3225708007813 440.1781311035156 746.8043212890625 C 463.649169921875 742.401123046875 486.7359008789063 735.8310546875 508.7968139648438 727.2765502929688 C 530.4561157226563 718.8778686523438 551.3463745117188 708.482666015625 570.8870849609375 696.3798828125 C 590.2408447265625 684.392822265625 608.4400024414063 670.6267700195313 624.9788208007813 655.4642333984375 C 641.5162353515625 640.3031616210938 656.52978515625 623.6209106445313 669.6024780273438 605.8810424804688 C 682.7991943359375 587.972900390625 694.133544921875 568.8290405273438 703.2905883789063 548.9808959960938 C 712.6160888671875 528.7677612304688 719.7782592773438 507.6153869628906 724.5780029296875 486.1113891601563 C 727.0180053710938 475.1800842285156 728.8804931640625 463.9918518066406 730.1138916015625 452.8574829101563 C 731.3654174804688 441.5593872070313 732 430.0379638671875 732 418.6134948730469 C 732 401.4033813476563 728.5977783203125 381.612548828125 721.8876342773438 359.790771484375 C 715.5673828125 339.23681640625 706.3067016601563 316.8396301269531 694.3626098632813 293.2214965820313 C 683.0243530273438 270.80126953125 669.350830078125 247.430908203125 653.7216796875 223.7594909667969 C 638.6575317382813 200.9439697265625 622.0263671875 178.2185668945313 604.2899169921875 156.2143249511719 C 586.820556640625 134.54150390625 568.68896484375 114.0736083984375 550.39892578125 95.37939453125 C 531.9360961914063 76.5086669921875 513.7648315429688 59.91021728515625 496.3895263671875 46.0450439453125 C 478.4584655761719 31.7362060546875 461.7197570800781 20.6197509765625 446.6382446289063 13.00433349609375 C 430.8634033203125 5.038818359375 417.0770568847656 1 405.6622314453125 1 M 405.6622619628906 0 C 500.9619140625 0 733 275.3603515625 733 418.6134948730469 C 733 604.18115234375 568.912353515625 754.613525390625 366.5 754.613525390625 C 164.087646484375 754.613525390625 0 604.18115234375 0 418.6134948730469 C 0 233.0458374023438 389.3845825195313 339.46728515625 366.5 82.61349487304688 C 361.2816772460938 24.0438232421875 377.5123901367188 0 405.6622619628906 0 Z" stroke="none" fill="#fff"/>
  </g>
</svg>
