<?xml version="1.0" encoding="utf-8"?><svg xmlns="http://www.w3.org/2000/svg" xmlns:xlink="http://www.w3.org/1999/xlink" width="1600" height="757" preserveAspectRatio="xMidYMid" viewBox="0 0 1600 757" style="z-index:1;margin-right:-2px;display:block;background-repeat-y:initial;background-repeat-x:initial;background-color:rgb(241, 242, 243);animation-play-state:paused" ><g transform="translate(800,378.5) scale(1,1) translate(-800,-378.5)" style="transform:matrix(1, 0, 0, 1, 0, 0);animation-play-state:paused" ><defs style="animation-play-state:paused" ><path id="path-un6bgaq94wg-1" d="M-35 -35L35 -35L35 35L-35 35Z" fill="none" stroke="inherit" stroke-width="4.333333333333334" transform="scale(0.3)" style="transform:matrix(0.3, 0, 0, 0.3, 0, 0);animation-play-state:paused" ></path>

  
<path id="path-un6bgaq94wg-2" d="M0 -37A37 37 0 0 1 0 37A37 37 0 0 1 0 -37" fill="none" stroke="inherit" stroke-width="4.333333333333334" transform="scale(0.3)" style="transform:matrix(0.3, 0, 0, 0.3, 0, 0);animation-play-state:paused" ></path>

  
<path id="path-un6bgaq94wg-3" d="M0 -34.641L40 34.641L-40 34.641Z" fill="none" stroke="inherit" stroke-width="4.333333333333334" transform="scale(0.3)" style="transform:matrix(0.3, 0, 0, 0.3, 0, 0);animation-play-state:paused" ></path></defs>
<path id="path0" d="M 127.70934079974789 444.04715486473987
c 0 53.02555463408931 -12.974337836000574 15.23074441617459 -28.205082252175163 15.23074441617459
S 71.29917629539757 497.07270949882917 71.29917629539757 444.04715486473987
s 12.974337836000574 -15.23074441617459 28.205082252175163 -15.23074441617459
S 127.70934079974789 391.02160023065056 127.70934079974789 444.04715486473987
z" fill="none" stroke="none" style="animation-play-state:paused" ></path>


<use xlink:href="#path-un6bgaq94wg-1" x="0" y="0" stroke="#1b0202" transform="translate(122.49495697021484 472.25958251953125)" style="animation-play-state:paused" ></use>
<path id="path1" d="M 209.73111173254847 215.22296473334882
c 0 59.21194401052533 -14.488028853639175 17.007686045576424 -31.4957148992156 17.007686045576424
S 146.7396819341173 274.43490874387413 146.7396819341173 215.22296473334882
s 14.488028853639175 -17.007686045576424 31.4957148992156 -17.007686045576424
S 209.73111173254847 156.0110207228235 209.73111173254847 215.22296473334882
z" fill="none" stroke="none" style="animation-play-state:paused" ></path>


<use xlink:href="#path-un6bgaq94wg-2" x="0" y="0" stroke="#aabbcc" transform="translate(209.63491821289062 222.96463012695312)" style="animation-play-state:paused" ></use>
<path id="path2" d="M 224.17828549571524 167.2379932643487
c 0 38.35959232474287 -9.385857696479636 11.018180774128272 -20.404038470607908 11.018180774128272
S 183.37020855449944 205.59758558909155 183.37020855449944 167.2379932643487
s 9.385857696479636 -11.018180774128272 20.404038470607908 -11.018180774128272
S 224.17828549571524 128.87840093960583 224.17828549571524 167.2379932643487
z" fill="none" stroke="none" style="animation-play-state:paused" ></path>


<use xlink:href="#path-un6bgaq94wg-2" x="0" y="0" stroke="#1b0202" transform="translate(223.8842315673828 177.1525115966797)" style="animation-play-state:paused" ></use>
<path id="path3" d="M 344.6595706350559 648.5505063856922
c 0 61.863207139501405 -15.136742172431193 17.76921907198445 -32.90596124441564 17.76921907198445
S 278.84764814622457 710.4137135251935 278.84764814622457 648.5505063856922
s 15.136742172431193 -17.76921907198445 32.90596124441564 -17.76921907198445
S 344.6595706350559 586.6872992461908 344.6595706350559 648.5505063856922
z" fill="none" stroke="none" style="animation-play-state:paused" ></path>


<use xlink:href="#path-un6bgaq94wg-2" x="0" y="0" stroke="#1b0202" transform="translate(321.0577392578125 669.7559814453125)" style="animation-play-state:paused" ></use>
<path id="path4" d="M 418.74470942689203 390.5357859740246
c 0 51.1608344199669 -12.518076507013177 14.695133290841559 -27.213209797854738 14.695133290841559
S 364.31828983118254 441.69662039399145 364.31828983118254 390.5357859740246
s 12.518076507013177 -14.695133290841559 27.213209797854738 -14.695133290841559
S 418.74470942689203 339.3749515540577 418.74470942689203 390.5357859740246
z" fill="none" stroke="none" style="animation-play-state:paused" ></path>


<use xlink:href="#path-un6bgaq94wg-2" x="0" y="0" stroke="#bbddff" transform="translate(418.6318664550781 398.2266540527344)" style="animation-play-state:paused" ></use>
<path id="path5" d="M 571.5507566112219 248.31566008363345
c 0 57.665943030220845 -14.109752018032758 16.56362193421237 -30.67337395224513 16.56362193421237
S 510.20400870673166 305.9816031138543 510.20400870673166 248.31566008363345
s 14.109752018032758 -16.56362193421237 30.67337395224513 -16.56362193421237
S 571.5507566112219 190.6497170534126 571.5507566112219 248.31566008363345
z" fill="none" stroke="none" style="animation-play-state:paused" ></path>


<use xlink:href="#path-un6bgaq94wg-3" x="0" y="0" stroke="#1b0202" transform="translate(557.177490234375 274.2555236816406)" style="animation-play-state:paused" ></use>
<path id="path6" d="M 637.4733546812396 670.314295503223
c 0 34.70234970524324 -8.491000459793558 9.96769619193157 -18.458696651725127 9.96769619193157
S 600.5559613777892 705.0166452084662 600.5559613777892 670.314295503223
s 8.491000459793558 -9.96769619193157 18.458696651725127 -9.96769619193157
S 637.4733546812396 635.6119457979797 637.4733546812396 670.314295503223
z" fill="none" stroke="none" style="animation-play-state:paused" ></path>


<use xlink:href="#path-un6bgaq94wg-2" x="0" y="0" stroke="#1b0202" transform="translate(600.936767578125 680.6676025390625)" style="animation-play-state:paused" ></use>
<path id="path7" d="M 691.5839241274382 179.88599583442908
c 0 21.09332949706055 -5.16113381311056 6.058722302347181 -11.219856115457741 6.058722302347181
S 669.1442118965226 200.97932533148963 669.1442118965226 179.88599583442908
s 5.16113381311056 -6.058722302347181 11.219856115457741 -6.058722302347181
S 691.5839241274382 158.79266633736853 691.5839241274382 179.88599583442908
z" fill="none" stroke="none" style="animation-play-state:paused" ></path>


<use xlink:href="#path-un6bgaq94wg-2" x="0" y="0" stroke="#bbddff" transform="translate(690.9560546875 188.80364990234375)" style="animation-play-state:paused" ></use>
<path id="path8" d="M 782.4540011207333 168.0262282065963
c 0 20.414751484711616 -4.99509876753582 5.863811596672485 -10.858910364208306 5.863811596672485
S 760.7361803923167 188.44097969130792 760.7361803923167 168.0262282065963
s 4.99509876753582 -5.863811596672485 10.858910364208306 -5.863811596672485
S 782.4540011207333 147.61147672188469 782.4540011207333 168.0262282065963
z" fill="none" stroke="none" style="animation-play-state:paused" ></path>


<use xlink:href="#path-un6bgaq94wg-1" x="0" y="0" stroke="#1b0202" transform="translate(779.1137084960938 178.5513458251953)" style="animation-play-state:paused" ></use>
<path id="path9" d="M 915.4776250921715 398.74960863167996
c 0 65.20549980680192 -15.954537186770683 18.729239306209063 -34.683776492979746 18.729239306209063
S 846.110072106212 463.9551084384819 846.110072106212 398.74960863167996
s 15.954537186770683 -18.729239306209063 34.683776492979746 -18.729239306209063
S 915.4776250921715 333.54410882487804 915.4776250921715 398.74960863167996
z" fill="none" stroke="none" style="animation-play-state:paused" ></path>


<use xlink:href="#path-un6bgaq94wg-3" x="0" y="0" stroke="#bbddff" transform="translate(886.8062133789062 418.93243408203125)" style="animation-play-state:paused" ></use>
<path id="path10" d="M 941.7514285707827 83.62401094971452
c 0 62.97019414210243 -15.40760069434421 18.08718342379538 -33.49478411813959 18.08718342379538
S 874.7618603345035 146.59420509181695 874.7618603345035 83.62401094971452
s 15.40760069434421 -18.08718342379538 33.49478411813959 -18.08718342379538
S 941.7514285707827 20.65381680761209 941.7514285707827 83.62401094971452
z" fill="none" stroke="none" style="animation-play-state:paused" ></path>


<use xlink:href="#path-un6bgaq94wg-2" x="0" y="0" stroke="#bbddff" transform="translate(940.9942626953125 103.08599090576172)" style="animation-play-state:paused" ></use>
<path id="path11" d="M 1065.5190826116243 258.37043209260395
c 0 40.40966983993492 -9.88747240764365 11.607032826364287 -21.49450523400794 11.607032826364287
S 1022.5300721436084 298.78010193253886 1022.5300721436084 258.37043209260395
s 9.88747240764365 -11.607032826364287 21.49450523400794 -11.607032826364287
S 1065.5190826116243 217.96076225266904 1065.5190826116243 258.37043209260395
z" fill="none" stroke="none" style="animation-play-state:paused" ></path>


<use xlink:href="#path-un6bgaq94wg-2" x="0" y="0" stroke="#aabbcc" transform="translate(1062.1075439453125 279.6470031738281)" style="animation-play-state:paused" ></use>
<path id="path12" d="M 1134.932694845258 479.1316954357744
c 0 18.981546274800213 -4.644420897025584 5.452146270421338 -10.09656716744692 5.452146270421338
S 1114.7395605103643 498.11324171057464 1114.7395605103643 479.1316954357744
s 4.644420897025584 -5.452146270421338 10.09656716744692 -5.452146270421338
S 1134.932694845258 460.1501491609742 1134.932694845258 479.1316954357744
z" fill="none" stroke="none" style="animation-play-state:paused" ></path>


<use xlink:href="#path-un6bgaq94wg-2" x="0" y="0" stroke="#aabbcc" transform="translate(1129.73046875 487.2611999511719)" style="animation-play-state:paused" ></use>
<path id="path13" d="M 1212.551407543201 360.6270921826685
c 0 32.20394080371228 -7.879687643461515 9.250068103193954 -17.12975574665547 9.250068103193954
S 1178.29189604989 392.83103298638076 1178.29189604989 360.6270921826685
s 7.879687643461515 -9.250068103193954 17.12975574665547 -9.250068103193954
S 1212.551407543201 328.4231513789562 1212.551407543201 360.6270921826685
z" fill="none" stroke="none" style="animation-play-state:paused" ></path>


<use xlink:href="#path-un6bgaq94wg-3" x="0" y="0" stroke="#bbddff" transform="translate(1197.05517578125 370.10418701171875)" style="animation-play-state:paused" ></use>
<path id="path14" d="M 1321.881664800636 683.8646355178614
c 0 33.725061187808265 -8.25187667361266 9.686985660327906 -17.938862333940566 9.686985660327906
S 1286.003940132755 717.5896967056697 1286.003940132755 683.8646355178614
s 8.25187667361266 -9.686985660327906 17.938862333940566 -9.686985660327906
S 1321.881664800636 650.1395743300532 1321.881664800636 683.8646355178614
z" fill="none" stroke="none" style="animation-play-state:paused" ></path>


<use xlink:href="#path-un6bgaq94wg-1" x="0" y="0" stroke="#aabbcc" transform="translate(1294.3096923828125 699.12158203125)" style="animation-play-state:paused" ></use>
<path id="path15" d="M 1391.9996157830237 271.8161102534752
c 0 23.21777738750631 -5.680945530985586 6.668936058113515 -12.349881589099102 6.668936058113515
S 1367.2998526048254 295.0338876409815 1367.2998526048254 271.8161102534752
s 5.680945530985586 -6.668936058113515 12.349881589099102 -6.668936058113515
S 1391.9996157830237 248.59833286596887 1391.9996157830237 271.8161102534752
z" fill="none" stroke="none" style="animation-play-state:paused" ></path>


<use xlink:href="#path-un6bgaq94wg-2" x="0" y="0" stroke="#1b0202" transform="translate(1391.5240478515625 280.5234069824219)" style="animation-play-state:paused" ></use>
<path id="path16" d="M 1517.8287639575613 316.9698897392492
c 0 64.03804072543319 -15.668882305159185 18.39390531475209 -34.062787619911276 18.39390531475209
S 1449.7031887177388 381.0079304646824 1449.7031887177388 316.9698897392492
s 15.668882305159185 -18.39390531475209 34.062787619911276 -18.39390531475209
S 1517.8287639575613 252.93184901381602 1517.8287639575613 316.9698897392492
z" fill="none" stroke="none" style="animation-play-state:paused" ></path>


<use xlink:href="#path-un6bgaq94wg-3" x="0" y="0" stroke="#bbddff" transform="translate(1453.4588623046875 348.991455078125)" style="animation-play-state:paused" ></use>
<path id="path17" d="M 1534.672199282628 466.47314484782316
c 0 21.31106354654851 -5.214409165644848 6.1212629335830835 -11.335672099227931 6.1212629335830835
S 1512.0008550841724 487.78420839437166 1512.0008550841724 466.47314484782316
s 5.214409165644848 -6.1212629335830835 11.335672099227931 -6.1212629335830835
S 1534.672199282628 445.16208130127467 1534.672199282628 466.47314484782316
z" fill="none" stroke="none" style="animation-play-state:paused" ></path>


<use xlink:href="#path-un6bgaq94wg-1" x="0" y="0" stroke="#bbddff" transform="translate(1519.43408203125 474.2802734375)" style="animation-play-state:paused" ></use></g></svg>